<?xml version="1.0" encoding="utf-8"?>
<!-- Generator: Adobe Illustrator 22.1.0, SVG Export Plug-In . SVG Version: 6.00 Build 0)  -->
<svg version="1.1" id="Capa_1" xmlns="http://www.w3.org/2000/svg" xmlns:xlink="http://www.w3.org/1999/xlink" x="0px" y="0px"
	 viewBox="0 0 48.6 48.6" style="enable-background:new 0 0 48.6 48.6;" xml:space="preserve">
<style type="text/css">
	.st0{fill:#F2E9E4;}
</style>
<g>
	<path class="st0" d="M34.1,8.7h4.8V0h-8.6c-0.7,0-9.5-0.2-11.8,8.5c0,0.1-0.8,2.2-0.8,7l-7.9,0v9.1l7.9,0v24h12.1v-24h8v-9.1h-8
		v-2.9C29.8,10.8,30.5,8.7,34.1,8.7z M35.8,17.5v5.1h-8v24h-8.1v-24l-7.9,0v-5.1l7.9,0l0-1c-0.1-5.1,0.6-7.3,0.7-7.4
		c2-7.5,9.5-7.1,9.8-7.1l6.7,0v4.7h-2.8c-4.7,0-6.3,3.1-6.3,5.9v4.9L35.8,17.5L35.8,17.5z"/>
</g>
</svg>
