<svg xmlns="http://www.w3.org/2000/svg" viewBox="0 0 138.629 141.293">
  <defs>
    <style>
      .cls-1 {
        fill: #9a8c98;
      }
    </style>
  </defs>
  <g id="_051-hearts" data-name="051-hearts" transform="translate(-4.827)">
    <g id="Group_76" data-name="Group 76" transform="translate(4.827 18.959)">
      <g id="Group_75" data-name="Group 75">
        <path id="Path_57" data-name="Path 57" class="cls-1" d="M143.456,106.72A38.086,38.086,0,0,0,132.568,79.85,37.074,37.074,0,0,0,105.9,68.7,37.926,37.926,0,0,0,74.142,85.814,37.927,37.927,0,0,0,42.38,68.7,37.076,37.076,0,0,0,15.715,79.85,38.087,38.087,0,0,0,4.827,106.721c0,9.539,2.76,15.114,4.979,19.594l.241.488c9.184,18.606,60.535,61.284,62.716,63.092l1.375,1.14,1.378-1.136c.051-.042,4.895-4.039,11.792-10.022,6.427,5.733,11.537,9.973,11.592,10.019l1.375,1.14,1.378-1.136c1.349-1.112,33.108-27.376,38.542-38.845l.151-.318a26.484,26.484,0,0,0,3.109-12.288A24.109,24.109,0,0,0,139.23,124.7,40.447,40.447,0,0,0,143.456,106.72Zm-7.012,42.159-.154.323c-4.423,9.336-29.784,30.983-36.008,36.211-2.133-1.8-6.517-5.537-11.508-10.026-7.556-6.8-13.617-12.716-17.9-17.453q-1.784-1.974-3.149-3.667-.545-.676-1.021-1.3a24.822,24.822,0,0,1-2.454-3.791l-.09-.182a21.212,21.212,0,0,1-2.693-10.543A19.369,19.369,0,0,1,80.88,118.706a19.706,19.706,0,0,1,17.486,10.573l1.913,3.64,1.913-3.64a19.7,19.7,0,0,1,17.486-10.573,19.22,19.22,0,0,1,15.341,7.546,19.812,19.812,0,0,1,4.114,12.2A22.1,22.1,0,0,1,136.444,148.879Zm-.3-27.849-.028-.026q-.358-.346-.73-.675l-.129-.115q-.372-.326-.756-.635l-.152-.121c-.262-.208-.528-.411-.8-.608l-.072-.051q-.393-.283-.8-.548l-.124-.083q-.414-.269-.838-.519l-.168-.1c-.286-.166-.575-.327-.868-.48l-.105-.054q-.425-.22-.859-.423l-.11-.052c-.3-.138-.6-.269-.91-.394l-.179-.073c-.305-.122-.613-.239-.924-.349l-.136-.046q-.455-.157-.918-.3l-.091-.028q-.48-.142-.968-.262l-.188-.047q-.481-.116-.968-.212l-.165-.031c-.325-.062-.651-.118-.98-.166l-.055-.009c-.338-.049-.677-.088-1.018-.123l-.193-.019q-.5-.046-1-.072l-.185-.008c-.349-.015-.7-.025-1.053-.025a24,24,0,0,0-19.4,9.82,24.1,24.1,0,0,0-22.956-9.558,23.34,23.34,0,0,0-13.309,6.8,24.131,24.131,0,0,0-6.866,17,25.243,25.243,0,0,0,3.14,12.458l.089.18q.124.251.264.512c.03.055.063.114.094.17.066.12.132.24.2.363.041.07.085.143.127.215.067.113.132.225.2.34.049.079.1.161.152.241.07.111.138.221.211.334.055.086.115.174.172.261.073.111.147.222.224.336.061.091.126.183.19.275.079.113.157.227.239.343.067.1.138.192.208.289.084.116.167.232.254.35.073.1.15.2.226.3.089.118.177.237.269.357.079.1.161.21.243.315l.283.365c.086.109.174.219.262.33s.2.247.3.372l.277.34.315.382.294.352.332.393.308.361.348.4.326.374c.119.136.241.273.363.411l.342.384.381.422.359.395.4.431.375.406.411.439.393.419c.139.148.282.3.424.447s.272.286.411.431L71,164.4c.142.146.281.292.425.44s.31.317.466.476l.433.442.5.5.432.434c.174.175.354.352.532.529q.426.423.865.855l.545.536.5.487c.176.171.349.34.527.512l.533.514.525.5.554.528.539.513.562.531.563.53.583.545.568.531.613.569.573.53.627.577.594.545.636.58.381.347c-4.5,3.9-8.079,6.911-9.927,8.455-8.368-7.032-52.249-44.371-60.224-60.526l-.243-.492c-2.124-4.288-4.53-9.149-4.53-17.677,0-18.9,14.6-33.7,33.231-33.7A33.637,33.637,0,0,1,72.229,91.068l1.913,3.64,1.913-3.64A33.637,33.637,0,0,1,105.9,73.021c18.634,0,33.231,14.8,33.231,33.7A34.974,34.974,0,0,1,136.143,121.03Z" transform="translate(-4.827 -68.7)"/>
      </g>
    </g>
    <g id="Group_78" data-name="Group 78" transform="translate(39.995)">
      <g id="Group_77" data-name="Group 77">
        <rect id="Rectangle_624" data-name="Rectangle 624" class="cls-1" width="4.322" height="13.455"/>
      </g>
    </g>
    <g id="Group_80" data-name="Group 80" transform="translate(55.175 3.925)">
      <g id="Group_79" data-name="Group 79">
        <rect id="Rectangle_625" data-name="Rectangle 625" class="cls-1" width="13.454" height="4.322" transform="translate(0 12.211) rotate(-65.178)"/>
      </g>
    </g>
    <g id="Group_82" data-name="Group 82" transform="translate(19.563 3.923)">
      <g id="Group_81" data-name="Group 81" transform="translate(0 0)">
        <rect id="Rectangle_626" data-name="Rectangle 626" class="cls-1" width="4.322" height="13.454" transform="translate(0 1.814) rotate(-24.822)"/>
      </g>
    </g>
    <g id="Group_84" data-name="Group 84" transform="translate(14.051 58.64)">
      <g id="Group_83" data-name="Group 83" transform="translate(0)">
        <path id="Path_58" data-name="Path 58" class="cls-1" d="M42.572,213.192q0-.3.006-.608l-4.321-.09q-.007.349-.007.7a34.3,34.3,0,0,0,.9,8.074l4.2-1.006A30.04,30.04,0,0,1,42.572,213.192Z" transform="translate(-38.25 -212.494)"/>
      </g>
    </g>
    <g id="Group_86" data-name="Group 86" transform="translate(14.461 35.585)">
      <g id="Group_85" data-name="Group 85">
        <path id="Path_59" data-name="Path 59" class="cls-1" d="M49.5,128.949a32.517,32.517,0,0,0-9.768,18.522l4.269.677a28.174,28.174,0,0,1,8.459-16.05Z" transform="translate(-39.736 -128.949)"/>
      </g>
    </g>
    <g id="Group_88" data-name="Group 88" transform="translate(65.229 73.637)">
      <g id="Group_87" data-name="Group 87">
        <path id="Path_60" data-name="Path 60" class="cls-1" d="M233.846,266.837A17.632,17.632,0,0,0,223.705,282.1l4.317.2a13.322,13.322,0,0,1,7.643-11.549Z" transform="translate(-223.705 -266.837)"/>
      </g>
    </g>
  </g>
</svg>
