<?xml version="1.0" encoding="utf-8"?>
<!-- Generator: Adobe Illustrator 22.1.0, SVG Export Plug-In . SVG Version: 6.00 Build 0)  -->
<svg version="1.1" id="Capa_1" xmlns="http://www.w3.org/2000/svg" xmlns:xlink="http://www.w3.org/1999/xlink" x="0px" y="0px"
	 viewBox="0 0 48 48" style="enable-background:new 0 0 48 48;" xml:space="preserve">
<style type="text/css">
	.st0{fill:#F2E9E4;}
</style>
<g>
	<g>
		<path class="st0" d="M40.4,5.5h-4.8c-1.4,0-2.6,1.2-2.6,2.6v4.8c0,1.4,1.2,2.6,2.6,2.6h4.8c1.4,0,2.6-1.2,2.6-2.6V8.1
			C43,6.7,41.8,5.5,40.4,5.5z M41,12.9c0,0.3-0.3,0.6-0.6,0.6h-4.8c-0.3,0-0.6-0.3-0.6-0.6V8.1c0-0.3,0.3-0.6,0.6-0.6h4.8
			c0.3,0,0.6,0.3,0.6,0.6V12.9z"/>
		<path class="st0" d="M37.8,0.5H10.2C4.6,0.5,0,5.1,0,10.7v6.8v2v17.8c0,5.6,4.6,10.2,10.2,10.2h27.6c5.6,0,10.2-4.6,10.2-10.2
			V19.5v-2v-6.8C48,5.1,43.4,0.5,37.8,0.5z M46,37.3c0,4.5-3.7,8.2-8.2,8.2H10.2c-4.5,0-8.2-3.7-8.2-8.2V19.5h12.2
			c-2.6,2.5-4.2,6.1-4.2,10c0,7.7,6.3,14,14,14s14-6.3,14-14c0-3.9-1.6-7.5-4.2-10H46V37.3z M36,29.5c0,6.6-5.4,12-12,12
			s-12-5.4-12-12s5.4-12,12-12S36,22.9,36,29.5z M31.2,17.5c-2.1-1.3-4.5-2-7.2-2s-5.1,0.7-7.2,2H2v-6.8c0-4.5,3.7-8.2,8.2-8.2h27.6
			c4.5,0,8.2,3.7,8.2,8.2v6.8H31.2z"/>
		<path class="st0" d="M15,29.5c0,5,4,9,9,9s9-4,9-9s-4-9-9-9S15,24.5,15,29.5z M31,29.5c0,3.9-3.1,7-7,7s-7-3.1-7-7s3.1-7,7-7
			S31,25.6,31,29.5z"/>
	</g>
</g>
</svg>
